<svg width="1440" height="975" viewBox="0 0 1440 975" fill="none" xmlns="http://www.w3.org/2000/svg">
<path fill-rule="evenodd" clip-rule="evenodd" d="M0 735.551V327.773V323.165C0.383949 322.956 0.767898 322.956 1.15185 322.956C5.56726 321.699 9.59872 320.861 13.4382 320.023C21.1172 318.348 29.1801 316.672 37.243 314.997C44.5381 313.531 53.1769 311.855 61.8158 310.599C69.8787 309.342 77.7496 308.923 86.5805 308.295C90.9959 308.085 95.4113 307.876 99.6347 307.667H100.403H101.362H101.554C104.626 307.457 107.89 307.248 110.961 307.248C116.528 307.038 122.672 306.619 127.087 306.41H127.279H127.855H128.047C137.07 305.782 148.396 305.153 159.147 304.734C162.41 304.525 165.866 304.525 169.129 304.316C171.817 304.316 174.313 304.106 177 304.106C182.568 303.897 188.519 303.478 194.47 303.059L195.814 302.849H196.006H196.198H196.39C199.461 302.64 202.725 302.221 205.989 301.802H206.181C209.636 301.383 213.86 300.755 217.891 300.127C226.146 298.661 234.209 297.195 242.08 295.519C251.486 293.634 261.277 291.33 272.028 289.026C278.171 287.56 284.698 285.885 290.841 284C293.913 283.162 297.176 282.115 300.824 280.858C303.896 279.811 306.775 278.764 309.847 277.507C311.958 276.67 314.262 275.622 316.566 274.575C318.678 273.528 320.789 272.481 323.285 271.015C325.781 269.549 327.892 268.292 330.196 266.826C332.5 265.36 334.803 263.684 337.107 262.218L337.683 261.799L338.259 261.38C339.027 260.962 339.603 260.333 340.371 259.914C340.563 259.705 340.755 259.705 340.947 259.496C341.139 258.448 341.522 257.401 342.29 256.982C343.442 256.144 344.402 255.307 345.362 254.469C346.898 253.212 348.818 251.746 350.545 250.49C355.537 246.72 360.336 243.578 364.943 240.646C367.823 238.761 370.703 237.295 373.582 235.829C376.27 234.572 379.149 233.316 382.605 232.059C388.364 229.965 394.507 228.498 401.802 227.032C407.754 225.985 413.705 225.357 419.464 225.357H420.232C423.496 225.357 426.759 225.566 429.447 225.776C433.094 225.985 436.166 226.195 438.854 226.614C444.613 227.242 450.756 228.498 457.859 230.174C460.931 231.012 464.002 231.849 466.69 232.687C469.569 233.525 472.449 234.782 475.137 235.829C476.672 236.457 478.4 237.085 479.936 237.714L480.704 238.133C481.472 238.342 482.432 238.761 483.2 239.18C483.392 239.18 483.584 239.389 483.968 239.389H484.159C484.159 239.389 484.16 239.389 484.352 239.389C484.735 239.18 484.927 239.18 485.503 238.761C486.655 238.133 487.999 237.295 488.959 236.457H489.151C489.919 236.038 490.687 235.41 491.455 234.991C493.95 233.316 496.446 231.85 498.941 230.593C501.821 229.127 504.893 228.08 507.58 227.242C510.268 226.195 513.148 225.566 515.835 224.938C521.595 223.472 527.546 222.634 533.689 222.215C535.993 222.006 538.488 222.006 540.984 222.006C544.439 222.006 548.087 222.215 552.31 222.425C557.878 222.844 562.869 223.472 567.668 224.31C570.164 224.729 572.276 225.357 574.579 225.776C575.539 225.985 576.691 226.404 577.651 226.614H577.843C578.995 227.032 580.339 227.451 581.682 227.661H581.874H582.066C582.258 227.661 582.258 227.451 582.45 227.451C583.218 226.823 583.794 226.195 584.562 225.357C585.906 224.1 587.058 222.634 588.21 221.378C588.786 220.749 589.361 220.121 589.937 219.493C591.665 217.608 594.161 214.885 596.848 212.581C598.96 210.696 601.264 208.811 604.335 206.926C606.831 205.041 609.519 203.575 612.398 202.109C615.278 200.643 617.966 199.596 620.653 198.758C623.341 197.92 626.413 197.083 629.676 196.454C633.132 195.826 636.395 195.616 639.659 195.407C640.235 195.407 640.811 195.407 641.195 195.407C643.306 195.407 645.61 195.407 648.682 195.616C652.905 195.826 656.552 196.454 660.2 196.873C662.12 197.292 664.232 197.711 666.535 198.13C667.303 198.339 668.263 198.549 669.031 198.758H669.223C670.183 198.967 671.143 199.177 672.294 199.386C673.254 199.596 674.79 199.805 676.326 200.015C676.518 200.015 676.71 200.015 676.902 200.015C677.094 200.015 677.286 200.015 677.478 200.015C677.67 200.015 677.862 200.015 677.862 200.015H678.054H678.246C678.246 200.015 678.438 200.015 678.438 199.805C678.63 199.596 678.822 199.386 679.014 199.177C679.589 198.549 680.165 197.92 680.741 197.292C681.893 195.826 682.853 194.36 683.813 193.103L684.005 192.894L684.197 192.684L684.389 192.475C684.773 191.847 685.349 191.218 685.733 190.59C687.652 187.867 689.572 185.354 691.492 182.841C695.715 177.605 700.131 172.788 704.738 168.808C707.042 166.714 709.537 164.829 712.225 162.734C714.529 160.85 717.216 158.965 720.288 156.87C725.087 153.519 730.463 150.168 736.798 146.608C747.932 140.324 759.643 133.622 772.121 129.643C774.809 128.805 777.88 127.967 781.72 127.339C784.791 126.711 788.055 126.292 791.319 126.083C793.814 125.873 796.502 125.873 799.189 125.873C802.837 125.873 806.677 126.083 811.092 126.501C814.356 126.711 817.427 127.13 820.691 127.549C823.762 127.968 826.642 128.596 829.905 129.224C835.281 130.271 840.848 131.737 846.991 133.622C852.75 135.298 858.318 137.602 863.501 139.906C866.189 141.162 868.684 142.419 870.988 143.675C872.14 144.304 873.292 144.932 874.06 145.56H874.252C875.211 146.189 876.363 146.817 877.323 147.236V147.027C877.899 146.398 878.283 145.56 878.859 144.932V144.723C879.627 143.675 880.587 142.209 881.738 140.953C883.466 138.649 885.578 136.555 887.882 134.251C892.489 130.062 897.48 126.083 902.856 122.941C905.927 121.056 908.807 119.59 911.495 118.124C914.374 116.658 917.446 115.192 920.325 114.145C923.205 113.097 926.277 112.469 928.964 111.841C931.844 111.212 935.107 111.003 938.563 110.793C940.291 110.793 942.21 110.584 943.938 110.584C950.273 110.584 956.8 111.212 963.52 112.469C966.975 113.097 970.623 113.935 974.846 115.401C976.766 116.029 978.686 116.658 980.221 117.496C980.605 117.705 981.181 117.914 981.565 118.124C981.757 117.705 981.949 116.658 982.525 115.82C983.101 114.563 983.677 113.307 984.253 112.26C985.405 110.165 986.557 108.071 987.9 105.976C989.436 103.673 990.78 101.578 992.124 99.6932C993.468 97.8082 995.003 95.9233 996.539 94.0383C1000.19 89.6401 1004.22 85.8702 1007.29 82.938C1010.94 79.587 1014.58 76.4454 1018.23 73.7227C1022.46 70.3717 1026.1 67.8584 1029.94 65.5546C1034.36 63.0413 1038.77 60.7374 1043.38 58.6431C1047.99 56.5487 1052.6 55.0826 1057.4 54.0354C1061.62 53.1976 1066.23 52.7788 1071.22 52.7788H1071.6C1079.86 52.7788 1089.07 54.2448 1099.44 56.9675C1104.04 58.2242 1108.46 59.6903 1112.88 61.5752C1116.33 63.0413 1120.17 65.1357 1124.78 68.2773C1127.47 69.9528 1129.96 71.8377 1132.46 73.9321C1133.42 74.9793 1134.57 76.0265 1135.91 77.4926C1136.1 76.8643 1136.3 76.4454 1136.49 76.0265C1137.83 72.8849 1139.56 69.5339 1141.48 66.3923L1141.29 66.8112C1143.78 62.413 1146.47 58.4336 1149.16 54.8731C1152.61 50.4749 1155.49 46.9144 1158.37 43.9823C1164.52 37.4897 1171.81 31.6254 1181.03 25.9705C1185.06 23.4572 1189.67 21.1534 1194.27 19.2684C1196.77 18.2212 1199.26 17.3835 1201.38 16.7552C1203.87 15.9174 1206.18 15.2891 1208.48 14.8702C1213.66 13.823 1218.27 13.1947 1222.69 13.1947C1223.07 13.1947 1223.45 13.1947 1223.84 13.1947C1228.06 13.1947 1232.48 13.4041 1237.28 14.0325C1246.49 15.2891 1256.09 17.5929 1265.69 21.3628C1270.1 23.0384 1274.52 25.1327 1278.93 27.4366C1281.05 28.6932 1282.96 29.9498 1284.88 31.4159C1287 33.0914 1288.72 34.767 1290.07 36.6519C1290.64 35.3953 1291.03 34.3481 1291.6 33.3009C1293.91 28.9026 1296.6 25.1327 1299.67 21.5723C1302.55 18.4307 1305.81 15.4985 1310.61 12.1475C1314.64 9.21534 1319.06 6.91151 1323.47 5.02655C1328.27 3.1416 1332.88 1.67552 1337.49 1.0472C1341.71 0.418879 1346.51 0 1351.69 0H1352.46C1354.76 0 1357.26 0.209449 1359.37 0.418889C1361.67 0.628328 1364.17 0.837755 1366.47 1.25663C1371.47 2.09439 1375.88 3.14159 1379.72 4.39823C1386.63 6.70206 1393.35 10.0531 1399.49 14.2419C1402.18 16.1268 1405.44 18.4307 1408.13 21.3628C1409.48 22.8289 1410.63 24.295 1411.4 25.9705C1411.59 26.1799 1411.59 26.5988 1411.78 26.8083L1412.36 26.1799L1412.55 25.9705C1413.12 25.3422 1413.7 24.5044 1414.28 23.8761C1417.16 20.5251 1420.42 17.5929 1423.68 15.4985C1425.22 14.4513 1426.95 13.6136 1429.25 12.3569C1431.17 11.5192 1433.09 10.6814 1435.01 10.0531C1436.74 9.42478 1438.27 9.00591 1440 8.79647V728.221V736.389H0V735.551Z" fill="#FFF2F2"/>
<path fill-rule="evenodd" clip-rule="evenodd" d="M0 975V111.691V101.847C1.72777 101.428 3.45554 101.219 5.18331 101.219C5.75923 101.219 6.33516 101.219 7.10305 101.219C8.2549 101.219 9.59872 101.219 10.5586 101.428C14.5901 101.637 17.8536 102.056 20.9252 102.894C24.1888 103.732 27.2604 104.988 30.14 106.455C32.8276 107.921 35.3233 109.596 38.0109 111.9C41.2745 114.623 44.3461 117.764 47.9936 121.744C48.1856 121.953 48.1856 121.953 48.3776 122.163C49.1455 121.325 49.9133 120.696 50.4893 120.068C51.6411 119.021 52.9849 117.974 54.5207 116.508C57.2084 114.413 60.28 112.738 63.1596 111.062L63.5435 110.853C66.8071 108.968 70.0707 107.502 73.7182 105.826C77.3657 104.151 81.0132 102.685 83.8928 101.428C90.6119 98.7053 97.907 96.192 105.394 94.3071C112.305 92.4221 119.216 90.956 125.935 90.1183C133.23 89.0711 140.717 88.8616 148.012 88.6522H148.204C150.7 88.4427 153.388 88.4427 156.075 88.4427C156.843 88.4427 157.803 88.4427 158.571 88.4427C162.41 88.4427 166.058 88.6522 169.513 88.8616C176.616 89.2805 184.103 90.1183 191.59 91.3749C195.43 92.0032 199.461 92.841 202.725 93.6787C206.372 94.5165 210.02 95.7731 213.476 96.8203C216.931 97.8675 220.387 99.3336 223.65 100.59L224.226 100.8C227.49 102.056 230.753 103.313 234.209 104.779C237.856 106.245 241.312 107.921 244.383 109.387C247.263 110.853 250.335 112.528 253.406 114.413C259.357 117.974 265.117 122.163 271.26 126.98C276.827 131.378 282.202 136.195 287.194 141.431C290.073 144.363 292.953 147.714 296.6 152.322C300.056 156.72 303.128 161.747 305.815 165.935C308.119 169.705 310.423 173.894 313.11 178.921C314.07 180.806 315.03 182.9 315.798 184.575C316.182 185.204 316.374 185.832 316.566 186.46L316.758 186.67C316.95 187.089 317.142 187.508 317.334 187.926L317.718 187.717C318.102 187.508 318.486 187.298 318.87 186.879C319.253 186.67 319.637 186.251 320.021 186.042L320.405 185.832L320.597 185.623C321.173 185.204 321.941 184.785 322.517 184.366C325.205 182.481 328.084 181.015 331.54 179.968C334.419 178.921 337.299 178.292 340.755 177.873C343.25 177.455 345.554 177.455 348.05 177.455C349.009 177.455 349.969 177.455 350.737 177.455C352.465 177.664 354.193 177.873 355.921 178.083C358.032 178.502 359.952 179.13 361.872 179.758C365.135 181.015 368.591 182.481 371.854 184.575C374.158 186.042 376.654 187.926 379.725 190.23C382.413 192.325 384.909 195.047 387.212 197.77C388.172 199.027 389.132 200.283 389.9 201.331L390.284 201.959L390.476 202.168C390.668 202.378 390.86 202.587 390.86 202.797C391.82 202.168 392.78 201.54 393.548 200.912C395.083 199.865 396.427 199.027 397.771 198.189C400.651 196.514 403.722 194.838 407.562 193.372C411.209 191.906 414.089 191.068 416.968 190.44C420.04 189.811 423.304 189.393 427.335 188.974C430.599 188.764 433.67 188.555 436.55 188.555C436.934 188.555 437.318 188.555 437.702 188.555C440.773 188.555 444.613 188.555 448.452 189.183C452.484 189.602 455.747 190.23 458.819 191.068C462.274 191.906 465.73 192.953 469.761 194.419C476.097 196.514 482.816 199.446 490.303 203.216C497.022 206.567 503.549 210.546 509.308 214.735C511.996 216.829 514.875 219.133 517.755 221.856C520.827 224.788 523.514 227.929 525.434 230.443C529.465 235.679 533.305 241.962 536.76 249.502C538.104 252.434 539.256 255.366 540.216 257.879C540.408 257.46 540.6 257.251 540.792 256.832C542.328 254.319 544.247 251.387 546.551 249.083C548.855 246.779 551.542 244.475 554.422 242.381C557.302 240.286 560.181 238.611 562.869 237.145C569.588 233.584 576.691 231.28 583.41 229.396C587.058 228.348 590.705 227.511 594.353 226.882C598 226.254 601.84 225.835 605.103 225.626C607.215 225.416 609.327 225.416 611.63 225.416C613.166 225.416 614.702 225.416 616.43 225.626C620.269 225.835 624.109 226.463 627.756 227.092C635.243 228.348 642.922 230.652 649.833 232.537C656.361 234.422 663.464 236.935 669.607 241.124C671.143 242.171 672.678 243.219 674.022 244.475C675.558 245.732 676.902 246.988 678.054 248.245L678.246 248.455C680.741 250.758 683.045 253.481 685.157 255.994L685.925 256.832C687.268 258.298 688.42 259.555 689.572 261.021L689.764 261.23C690.916 262.696 692.068 263.953 693.22 265.419C693.796 266.257 694.371 267.095 695.139 268.142C695.715 268.98 696.291 270.027 697.059 271.283C697.635 272.121 698.019 273.168 698.595 274.216L698.787 274.634C699.171 275.472 699.555 276.31 699.939 277.357C700.707 279.452 701.474 281.546 702.242 284.269C702.818 286.363 703.202 288.457 703.586 290.342V290.761C703.778 292.018 703.97 293.065 704.354 294.322C705.314 292.856 706.274 291.599 707.426 290.342C708.578 289.086 709.729 287.62 711.073 286.363C713.377 283.85 716.065 281.965 718.56 280.289C719.904 279.452 721.248 278.823 722.592 278.195C724.128 277.567 725.855 277.148 728.159 276.519C729.695 276.31 731.422 276.101 733.342 276.101H733.534C735.454 276.101 736.99 276.31 738.526 276.519C740.637 276.938 742.365 277.357 743.709 277.985C745.245 278.614 746.78 279.661 748.508 281.127C751.196 283.221 753.5 286.154 755.035 288.039C755.419 288.457 755.611 288.876 755.995 289.295L756.187 289.505C756.379 289.714 756.571 289.924 756.763 290.342L757.339 289.714C758.107 288.876 758.875 288.039 759.835 287.201C761.179 285.944 762.522 284.897 764.25 283.85C767.13 281.965 770.393 280.289 774.425 278.404C777.88 276.938 781.528 275.472 785.559 274.216C789.207 273.168 793.046 272.54 796.31 272.121C800.341 271.493 804.181 271.493 807.06 271.493C810.516 271.493 814.163 271.702 818.579 272.121C822.61 272.54 826.258 273.168 829.905 274.216C833.553 275.263 836.816 276.31 839.504 277.776C843.728 279.87 847.183 282.174 850.255 284.897C851.982 286.363 853.326 287.829 854.478 289.086C855.63 290.342 856.782 291.808 858.126 293.484C861.005 297.254 863.117 300.814 865.037 304.375C866.381 307.098 867.724 309.82 869.068 312.543C869.26 313.171 869.644 313.59 869.836 314.009L870.028 314.219H870.412C871.372 314.219 872.332 314.219 873.292 314.219C874.635 314.009 875.787 314.009 877.131 313.8H877.515C878.859 313.59 880.395 313.59 881.738 313.381C885.002 313.171 887.882 312.962 890.569 312.752C891.145 312.752 891.721 312.752 892.297 312.752C897.672 312.752 903.432 313.59 909.191 315.056C914.758 316.522 920.133 319.036 925.125 322.387C926.852 323.434 928.58 324.9 930.5 326.366C930.884 326.785 931.268 326.994 931.652 327.413C932.228 327.832 932.804 328.46 933.38 328.879C933.956 328.67 934.723 328.67 935.299 328.46C936.643 328.042 937.987 327.623 939.331 327.204L939.907 326.994C941.443 326.575 942.978 325.947 944.706 325.528C947.778 324.481 951.041 323.643 955.073 322.806C962.176 321.13 969.471 320.083 976.766 319.454C979.645 319.245 983.101 319.036 986.365 319.036C986.748 319.036 987.324 319.036 987.708 319.036C991.548 319.036 995.387 319.245 999.227 319.664C1002.87 320.083 1006.71 320.502 1010.94 321.13C1014.01 321.549 1017.85 322.177 1021.5 323.224C1025.14 324.272 1028.41 325.528 1031.67 326.785C1033.4 327.413 1035.13 328.041 1036.85 328.67H1037.05C1038.77 329.298 1040.69 330.136 1042.42 330.764C1045.49 332.021 1048.56 333.277 1051.83 334.744C1055.09 336.21 1058.35 338.095 1061.23 339.98C1063.54 341.446 1066.03 343.121 1068.91 345.425C1071.03 347.1 1072.94 348.776 1074.67 350.452C1076.59 352.336 1078.32 354.431 1079.66 356.316C1080.05 356.944 1080.62 357.572 1081.01 358.201C1082.35 359.876 1083.7 361.761 1085.04 363.646C1085.62 364.484 1086.38 365.531 1087.15 366.788L1087.34 366.997C1087.92 367.626 1088.3 368.463 1088.88 369.092L1089.07 369.301C1089.07 369.301 1089.07 369.301 1089.26 369.301H1089.45C1089.65 369.301 1089.65 369.51 1089.84 369.51C1090.03 369.51 1090.41 369.72 1090.61 369.72C1091.18 369.72 1091.76 369.929 1092.53 369.929C1093.1 369.929 1093.68 369.929 1094.25 369.929C1096.37 369.929 1098.48 369.72 1100.59 369.72H1101.74C1105.96 369.511 1109.42 369.301 1112.49 369.301C1116.33 369.301 1120.17 369.092 1123.63 369.092C1124.01 369.092 1124.59 369.092 1124.97 369.092C1127.85 369.092 1130.92 369.092 1134.95 369.301C1138.98 369.511 1142.82 369.929 1146.47 370.348C1149.93 370.767 1153.38 371.605 1157.03 372.443C1165.28 374.328 1172 376.422 1178.15 378.726C1185.44 381.449 1191.59 384.59 1196.96 388.151C1200.03 390.245 1203.3 392.549 1206.56 395.272C1209.44 397.575 1212.13 400.089 1214.62 402.602C1215.58 403.649 1216.73 404.696 1217.69 405.953L1217.89 406.162C1218.08 406.372 1218.27 406.581 1218.46 407C1219.61 408.466 1220.77 409.723 1222.11 411.398C1223.07 412.655 1223.84 413.702 1224.6 414.749L1224.99 415.378C1225.37 416.006 1225.95 416.634 1226.33 417.263C1226.52 417.472 1226.52 417.472 1226.72 417.682H1226.91H1227.1C1227.29 417.682 1227.29 417.891 1227.48 417.891C1227.68 418.1 1228.06 418.1 1228.25 418.31C1228.83 418.519 1229.4 418.729 1230.17 418.729C1232.48 419.148 1234.97 419.357 1236.7 419.357C1239.19 419.567 1241.69 419.567 1243.8 419.567H1244.76C1245.72 419.567 1246.87 419.567 1247.83 419.776C1251.29 419.985 1254.74 420.195 1258.78 420.404C1263.77 420.823 1268.76 421.242 1273.75 421.661H1273.94H1274.13C1276.63 421.87 1279.13 422.08 1281.62 422.289C1285.27 422.708 1288.92 422.918 1292.56 423.336H1293.52C1297.17 423.755 1301.01 423.965 1304.66 424.384C1312.15 425.012 1319.63 426.059 1327.12 427.106C1335.18 428.363 1343.24 429.62 1351.12 430.876L1354.19 431.505C1360.52 432.552 1367.24 433.599 1373.77 435.065C1381.06 436.741 1388.74 438.835 1396.04 440.929C1397.96 441.558 1400.07 442.186 1401.99 442.814C1403.52 443.233 1404.87 443.652 1406.4 444.071L1407.75 444.49C1411.01 445.537 1414.28 446.375 1417.54 447.631C1420.8 448.679 1424.07 449.935 1427.33 451.401C1430.4 452.658 1433.47 454.124 1436.93 455.59C1437.89 456.009 1439.04 456.637 1440 457.056V961.805V974.581H0V975Z" fill="#FFDEDF"/>
</svg>
